<?xml version="1.0" encoding="UTF-8"?>
<svg version="1.1" xmlns="http://www.w3.org/2000/svg" width="101" height="51">
<path d="M0 0 C-0.33 1.65 -0.66 3.3 -1 5 C0.670625 4.7215625 0.670625 4.7215625 2.375 4.4375 C6 4 6 4 8 5 C8.0825 4.21625 8.165 3.4325 8.25 2.625 C9 0 9 0 11.0625 -1.3125 C11.701875 -1.539375 12.34125 -1.76625 13 -2 C13 -0.02 13 1.96 13 4 C14.32 4.33 15.64 4.66 17 5 C17.99 2.69 18.98 0.38 20 -2 C20.99 -2 21.98 -2 23 -2 C23 -0.02 23 1.96 23 4 C25.86964055 4.73790757 27.75795825 5.0506599 30.6875 4.4375 C31.450625 4.293125 32.21375 4.14875 33 4 C35 6 35 6 35 9 C35.66 7.02 36.32 5.04 37 3 C37.99 3 38.98 3 40 3 C40 3.66 40 4.32 40 5 C40.99 5.33 41.98 5.66 43 6 C43.1875 9.375 43.1875 9.375 43 13 C39.24369955 15.5042003 38.2847417 14.77125351 34 14 C32.32706064 14.30027117 30.66014616 14.63557767 29 15 C26.66698014 15.03824623 24.33288492 15.04574284 22 15 C21.505 13.02 21.505 13.02 21 11 C20.34 12.32 19.68 13.64 19 15 C16.36 15 13.72 15 11 15 C10.67 14.34 10.34 13.68 10 13 C9.67 13.66 9.34 14.32 9 15 C4.05 15 -0.9 15 -6 15 C-6 14.34 -6 13.68 -6 13 C-6.66 13 -7.32 13 -8 13 C-8.33 14.65 -8.66 16.3 -9 18 C-10.32 18 -11.64 18 -13 18 C-13 16.68 -13 15.36 -13 14 C-13.33 14.33 -13.66 14.66 -14 15 C-15.99958364 15.04080783 -18.00045254 15.04254356 -20 15 C-20.33 13.68 -20.66 12.36 -21 11 C-19.35 10.34 -17.7 9.68 -16 9 C-16.515625 8.608125 -17.03125 8.21625 -17.5625 7.8125 C-19 6 -19 6 -18.9375 3.5 C-17.79375863 0.45002301 -16.82923197 -0.42820446 -14 -2 C-8.80101121 -3.64178593 -4.51554573 -3.01036382 0 0 Z M-14 2 C-14.33 2.66 -14.66 3.32 -15 4 C-14.34 4 -13.68 4 -13 4 C-13.33 3.34 -13.66 2.68 -14 2 Z M-2 7 C-1 10 -1 10 -1 10 Z M29 8 C29.33 8.99 29.66 9.98 30 11 C30.33 10.01 30.66 9.02 31 8 C30.34 8 29.68 8 29 8 Z " fill="#4A494C" transform="translate(38,19)"/>
<path d="M0 0 C-0.33 0.99 -0.66 1.98 -1 3 C-1 2.34 -1 1.68 -1 1 C-4.24849977 2.72226496 -4.24849977 2.72226496 -5 6 C-6.66666667 6 -8.33333333 6 -10 6 C-10 7.98 -10 9.96 -10 12 C-9.34 11.67 -8.68 11.34 -8 11 C-7.34786708 8.97536745 -7.34786708 8.97536745 -7 7 C-6.34 7 -5.68 7 -5 7 C-5 7.99 -5 8.98 -5 10 C-4.34 10 -3.68 10 -3 10 C-2.67 9.34 -2.34 8.68 -2 8 C-1.34 7.67 -0.68 7.34 0 7 C0 8.32 0 9.64 0 11 C-0.639375 11.12375 -1.27875 11.2475 -1.9375 11.375 C-2.618125 11.58125 -3.29875 11.7875 -4 12 C-4.33 12.66 -4.66 13.32 -5 14 C-4.01 14.33 -3.02 14.66 -2 15 C-3.32 15 -4.64 15 -6 15 C-6 14.34 -6 13.68 -6 13 C-6.66 13 -7.32 13 -8 13 C-8.33 14.65 -8.66 16.3 -9 18 C-10.32 18 -11.64 18 -13 18 C-13 16.68 -13 15.36 -13 14 C-13.33 14.33 -13.66 14.66 -14 15 C-15.99958364 15.04080783 -18.00045254 15.04254356 -20 15 C-20.33 13.68 -20.66 12.36 -21 11 C-19.35 10.34 -17.7 9.68 -16 9 C-16.515625 8.608125 -17.03125 8.21625 -17.5625 7.8125 C-19 6 -19 6 -18.9375 3.5 C-17.79375863 0.45002301 -16.82923197 -0.42820446 -14 -2 C-8.80101121 -3.64178593 -4.51554573 -3.01036382 0 0 Z M-14 2 C-14.33 2.66 -14.66 3.32 -15 4 C-14.34 4 -13.68 4 -13 4 C-13.33 3.34 -13.66 2.68 -14 2 Z " fill="#302D2C" transform="translate(38,19)"/>
<path d="M0 0 C0.99 0 1.98 0 3 0 C3 1.98 3 3.96 3 6 C5.86964055 6.73790757 7.75795825 7.0506599 10.6875 6.4375 C11.8321875 6.2209375 11.8321875 6.2209375 13 6 C15 8 15 8 15 11 C15.66 9.02 16.32 7.04 17 5 C17.99 5 18.98 5 20 5 C20 5.66 20 6.32 20 7 C20.99 7.33 21.98 7.66 23 8 C23.1875 11.375 23.1875 11.375 23 15 C19.24369955 17.5042003 18.2847417 16.77125351 14 16 C12.32706064 16.30027117 10.66014616 16.63557767 9 17 C6.66698014 17.03824623 4.33288492 17.04574284 2 17 C2.99 14.03 3.98 11.06 5 8 C4.01 8.33 3.02 8.66 2 9 C1.67 7.35 1.34 5.7 1 4 C0.01 4.99 -0.98 5.98 -2 7 C-1.125 1.125 -1.125 1.125 0 0 Z M9 10 C9.33 10.99 9.66 11.98 10 13 C10.33 12.01 10.66 11.02 11 10 C10.34 10 9.68 10 9 10 Z " fill="#605F61" transform="translate(58,17)"/>
<path d="M0 0 C0.99 0 1.98 0 3 0 C3 1.32 3 2.64 3 4 C5.97 4.495 5.97 4.495 9 5 C8.01 5.495 8.01 5.495 7 6 C7 6.66 7 7.32 7 8 C9.97 8.33 12.94 8.66 16 9 C16 10.32 16 11.64 16 13 C16.66 13.33 17.32 13.66 18 14 C17.01 14 16.02 14 15 14 C14.67 13.34 14.34 12.68 14 12 C13.67 12.66 13.34 13.32 13 14 C3.58997722 14.18451025 3.58997722 14.18451025 -1 13 C-0.67 12.01 -0.34 11.02 0 10 C1.32 10 2.64 10 4 10 C4 8.68 4 7.36 4 6 C3.54625 6.495 3.0925 6.99 2.625 7.5 C1 9 1 9 -1 9 C-1 8.01 -1 7.02 -1 6 C-1.66 6 -2.32 6 -3 6 C-3.33 7.32 -3.66 8.64 -4 10 C-3.34 10.33 -2.68 10.66 -2 11 C-3.32 11.33 -4.64 11.66 -6 12 C-7.33332095 9.3333581 -6.67102033 7.83319697 -6 5 C-5.34 5 -4.68 5 -4 5 C-3.67 4.34 -3.34 3.68 -3 3 C-2.34 3.33 -1.68 3.66 -1 4 C-0.67 2.68 -0.34 1.36 0 0 Z " fill="#474649" transform="translate(34,20)"/>
<path d="M0 0 C0.66 0.33 1.32 0.66 2 1 C1.67 2.98 1.34 4.96 1 7 C1.66 6.67 2.32 6.34 3 6 C3.65213292 3.97536745 3.65213292 3.97536745 4 2 C4.66 2 5.32 2 6 2 C6 2.99 6 3.98 6 5 C6.66 5 7.32 5 8 5 C8.33 4.34 8.66 3.68 9 3 C9.66 2.67 10.32 2.34 11 2 C11 3.32 11 4.64 11 6 C10.360625 6.12375 9.72125 6.2475 9.0625 6.375 C8.381875 6.58125 7.70125 6.7875 7 7 C6.67 7.66 6.34 8.32 6 9 C6.99 9.33 7.98 9.66 9 10 C7.68 10 6.36 10 5 10 C5 9.34 5 8.68 5 8 C4.34 8 3.68 8 3 8 C2.67 9.65 2.34 11.3 2 13 C0.68 13 -0.64 13 -2 13 C-2 11.68 -2 10.36 -2 9 C-2.33 9.33 -2.66 9.66 -3 10 C-4.99958364 10.04080783 -7.00045254 10.04254356 -9 10 C-9.33 8.68 -9.66 7.36 -10 6 C-4.375 3.875 -4.375 3.875 -1 5 C-0.67 3.35 -0.34 1.7 0 0 Z " fill="#7E7E80" transform="translate(27,24)"/>
<path d="M0 0 C0.99 0 1.98 0 3 0 C3 1.32 3 2.64 3 4 C5.97 4.495 5.97 4.495 9 5 C8.01 5.495 8.01 5.495 7 6 C7 6.99 7 7.98 7 9 C6.01 9.33 5.02 9.66 4 10 C4 8.68 4 7.36 4 6 C3.54625 6.495 3.0925 6.99 2.625 7.5 C1 9 1 9 -1 9 C-1 8.01 -1 7.02 -1 6 C-1.66 6 -2.32 6 -3 6 C-3.33 7.32 -3.66 8.64 -4 10 C-3.34 10.33 -2.68 10.66 -2 11 C-3.32 11.33 -4.64 11.66 -6 12 C-7.33332095 9.3333581 -6.67102033 7.83319697 -6 5 C-5.34 5 -4.68 5 -4 5 C-3.67 4.34 -3.34 3.68 -3 3 C-2.34 3.33 -1.68 3.66 -1 4 C-0.67 2.68 -0.34 1.36 0 0 Z " fill="#3D3B3E" transform="translate(34,20)"/>
<path d="M0 0 C0.99 0 1.98 0 3 0 C3 0.66 3 1.32 3 2 C3.99 2.33 4.98 2.66 6 3 C6.1875 6.375 6.1875 6.375 6 10 C3 12 3 12 0 12 C0.33 10.35 0.66 8.7 1 7 C0.34 7 -0.32 7 -1 7 C-1.04254356 5.00045254 -1.04080783 2.99958364 -1 1 C-0.67 0.67 -0.34 0.34 0 0 Z " fill="#252428" transform="translate(75,22)"/>
<path d="M0 0 C-0.33 0.99 -0.66 1.98 -1 3 C-1 2.34 -1 1.68 -1 1 C-4.24849977 2.72226496 -4.24849977 2.72226496 -5 6 C-5.66 5.67 -6.32 5.34 -7 5 C-7 3.68 -7 2.36 -7 1 C-7.99 0.67 -8.98 0.34 -10 0 C-11.34090759 -0.65129797 -12.67592331 -1.31513275 -14 -2 C-8.64887908 -3.41647318 -4.64323847 -3.09549231 0 0 Z " fill="#757274" transform="translate(38,19)"/>
<path d="M0 0 C1.32 0.66 2.64 1.32 4 2 C3.34 2.66 2.68 3.32 2 4 C2.99 5.485 2.99 5.485 4 7 C3.01 7.99 2.02 8.98 1 10 C-0.32 9.01 -1.64 8.02 -3 7 C-2.25 2.25 -2.25 2.25 0 0 Z " fill="#7C7B77" transform="translate(22,18)"/>
<path d="M0 0 C0.99 0 1.98 0 3 0 C3 1.98 3 3.96 3 6 C4.32 6.66 5.64 7.32 7 8 C6.67 8.99 6.34 9.98 6 11 C5.67 10.01 5.34 9.02 5 8 C4.01 8.33 3.02 8.66 2 9 C1.67 7.35 1.34 5.7 1 4 C0.01 4.99 -0.98 5.98 -2 7 C-1.125 1.125 -1.125 1.125 0 0 Z " fill="#727272" transform="translate(58,17)"/>
<path d="M0 0 C0.33 0.66 0.66 1.32 1 2 C1.99 2 2.98 2 4 2 C4.33 1.34 4.66 0.68 5 0 C5 0.66 5 1.32 5 2 C5.66 2.33 6.32 2.66 7 3 C5.68 3 4.36 3 3 3 C3 3.66 3 4.32 3 5 C0.03 4.67 -2.94 4.34 -6 4 C-5.67 3.01 -5.34 2.02 -5 1 C-3.35 0.67 -1.7 0.34 0 0 Z " fill="#4F4E50" transform="translate(39,29)"/>
<path d="M0 0 C0.66 0 1.32 0 2 0 C2 0.99 2 1.98 2 3 C2.66 3 3.32 3 4 3 C4.33 2.34 4.66 1.68 5 1 C5.66 0.67 6.32 0.34 7 0 C7 1.32 7 2.64 7 4 C6.360625 4.12375 5.72125 4.2475 5.0625 4.375 C4.0415625 4.684375 4.0415625 4.684375 3 5 C2.67 5.66 2.34 6.32 2 7 C2.99 7.33 3.98 7.66 5 8 C3.68 8 2.36 8 1 8 C1 7.34 1 6.68 1 6 C0.34 6 -0.32 6 -1 6 C-1.33 6.66 -1.66 7.32 -2 8 C-1.125 2.25 -1.125 2.25 0 0 Z " fill="#999999" transform="translate(31,26)"/>
<path d="M0 0 C1.9375 0.8125 1.9375 0.8125 4 2 C4.33 2.99 4.66 3.98 5 5 C5.66 5.33 6.32 5.66 7 6 C6.34 7.32 5.68 8.64 5 10 C2.33333333 7.33333333 -0.33333333 4.66666667 -3 2 C-2.01 1.34 -1.02 0.68 0 0 Z " fill="#737376" transform="translate(69,23)"/>
<path d="M0 0 C0.99 0 1.98 0 3 0 C3 0.66 3 1.32 3 2 C3.99 2.33 4.98 2.66 6 3 C5.67 4.65 5.34 6.3 5 8 C4.34 8 3.68 8 3 8 C3 7.34 3 6.68 3 6 C1.68 6 0.36 6 -1 6 C-1.042721 4.33388095 -1.04063832 2.66617115 -1 1 C-0.67 0.67 -0.34 0.34 0 0 Z M0 2 C0.33 2.66 0.66 3.32 1 4 C1.66 3.67 2.32 3.34 3 3 C2.01 2.67 1.02 2.34 0 2 Z " fill="#66656B" transform="translate(75,22)"/>
<path d="M0 0 C0.33 0 0.66 0 1 0 C0.67 2.64 0.34 5.28 0 8 C-1.65 7.67 -3.3 7.34 -5 7 C-5 6.34 -5 5.68 -5 5 C-5.66 4.34 -6.32 3.68 -7 3 C-2.25 1.875 -2.25 1.875 0 3 C0 2.01 0 1.02 0 0 Z " fill="#6A686B" transform="translate(46,21)"/>
<path d="M0 0 C0.66 0 1.32 0 2 0 C2 1.98 2 3.96 2 6 C2.66 6 3.32 6 4 6 C4 6.66 4 7.32 4 8 C2 9.625 2 9.625 0 11 C0 8.69 0 6.38 0 4 C-0.66 4 -1.32 4 -2 4 C-1.34 2.68 -0.68 1.36 0 0 Z " fill="#6E6D6E" transform="translate(49,17)"/>
<path d="M0 0 C0.99 0 1.98 0 3 0 C3 0.99 3 1.98 3 3 C3.66 3.33 4.32 3.66 5 4 C3.35 4.33 1.7 4.66 0 5 C-0.5625 3.0625 -0.5625 3.0625 -1 1 C-0.67 0.67 -0.34 0.34 0 0 Z " fill="#4C4C4E" transform="translate(18,29)"/>
<path d="M0 0 C0.66 0 1.32 0 2 0 C2.33 2.64 2.66 5.28 3 8 C1.68 7.67 0.36 7.34 -1 7 C-0.67 4.69 -0.34 2.38 0 0 Z " fill="#343234" transform="translate(47,21)"/>
<path d="M0 0 C0.66 0.33 1.32 0.66 2 1 C2 2.65 2 4.3 2 6 C0.68 6 -0.64 6 -2 6 C-1.49396008 3.83125748 -1.00016187 2.00032373 0 0 Z " fill="#696969" transform="translate(27,31)"/>
<path d="M0 0 C0.103125 0.639375 0.20625 1.27875 0.3125 1.9375 C0.539375 2.618125 0.76625 3.29875 1 4 C1.99 4.33 2.98 4.66 4 5 C3.34 5.66 2.68 6.32 2 7 C1.01 7 0.02 7 -1 7 C-0.67 4.69 -0.34 2.38 0 0 Z " fill="#363639" transform="translate(70,26)"/>
<path d="M0 0 C0.66 0 1.32 0 2 0 C2.36923077 5.53846154 2.36923077 5.53846154 0.5 7.875 C-0.2425 8.431875 -0.2425 8.431875 -1 9 C-1.33 8.34 -1.66 7.68 -2 7 C-1.3507041 5.65812182 -0.68268138 4.32520503 0 3 C0 2.01 0 1.02 0 0 Z " fill="#353434" transform="translate(25,21)"/>
<path d="M0 0 C0.33 0.66 0.66 1.32 1 2 C3.01669827 3.13350534 3.01669827 3.13350534 5 4 C4.67 4.99 4.34 5.98 4 7 C3.67 6.01 3.34 5.02 3 4 C2.01 4.33 1.02 4.66 0 5 C-0.33 4.01 -0.66 3.02 -1 2 C-0.67 1.34 -0.34 0.68 0 0 Z " fill="#99999A" transform="translate(60,21)"/>
</svg>
